<?xml version="1.0" encoding="utf-8"?>
<!-- Generator: Adobe Illustrator 22.0.1, SVG Export Plug-In . SVG Version: 6.00 Build 0)  -->
<svg version="1.1" id="圖層_1" xmlns="http://www.w3.org/2000/svg" xmlns:xlink="http://www.w3.org/1999/xlink" x="0px" y="0px"
	 viewBox="0 0 400 250" style="enable-background:new 0 0 400 250;" xml:space="preserve">
<style type="text/css">
	.st0{fill:#999999;}
	.st1{fill:#FFFFFF;}
</style>
<g>
	<g>
		<g>
			<path class="st0" d="M200,5.7c65.8,0,119.3,53.5,119.3,119.3S265.8,244.3,200,244.3S80.7,190.8,80.7,125S134.2,5.7,200,5.7
				 M200,0C131,0,75,56,75,125s56,125,125,125s125-56,125-125S269,0,200,0L200,0z M200,42.1c45.7,0,82.9,37.2,82.9,82.9
				s-37.2,82.9-82.9,82.9s-82.9-37.2-82.9-82.9S154.3,42.1,200,42.1 M200,39.9c-47,0-85.1,38.2-85.1,85.1s38.2,85.1,85.1,85.1
				s85.1-38.2,85.1-85.1S247,39.9,200,39.9L200,39.9z M264.5,125c0-35.6-28.9-64.5-64.5-64.5s-64.5,28.9-64.5,64.5
				s28.9,64.5,64.5,64.5S264.5,160.6,264.5,125z M375.5,225.9h-67.4c-3.8,4-7.8,7.9-12,11.5h79.4c6.3,0,11.5-5.1,11.5-11.5V168
				h-11.5V225.9z M386.9,24.1c0-6.3-5.1-11.5-11.5-11.5h-79.4c4.2,3.6,8.2,7.4,12,11.5h67.4V82h11.5V24.1z M13.1,225.9
				c0,6.3,5.1,11.5,11.5,11.5h79.4c-4.2-3.6-8.2-7.4-12-11.5H24.5V168H13.1V225.9z M24.5,24.1h67.4c3.8-4,7.8-7.9,12-11.5H24.5
				c-6.3,0-11.5,5.1-11.5,11.5V82h11.5V24.1z"/>
			<circle class="st1" cx="182.2" cy="96.9" r="17.8"/>
		</g>
	</g>
</g>
</svg>
